<svg xmlns="http://www.w3.org/2000/svg" width="24" height="25" viewBox="0 0 24 25" fill="none">
  <path
    d="M13.0998 12.5169L19.5998 6.01689C19.8998 5.71689 19.8998 5.21689 19.5998 4.91689C19.2998 4.61689 18.7998 4.61689 18.4998 4.91689L11.9998 11.4169L5.4998 5.01689C5.1998 4.71689 4.6998 4.71689 4.3998 5.01689C4.0998 5.31689 4.0998 5.81689 4.3998 6.11689L10.8998 12.6169L4.3998 19.1169C4.0998 19.4169 4.0998 19.9169 4.3998 20.2169C4.4998 20.3169 4.6998 20.4169 4.8998 20.4169C5.0998 20.4169 5.2998 20.3169 5.3998 20.2169L11.8998 13.7169L18.3998 20.2169C18.4998 20.3169 18.6998 20.4169 18.8998 20.4169C19.0998 20.4169 19.2998 20.3169 19.3998 20.2169C19.6998 19.9169 19.6998 19.4169 19.3998 19.1169L13.0998 12.5169Z"
    fill="white" />
</svg>