<svg xmlns="http://www.w3.org/2000/svg" width="12" height="19" viewBox="0 0 12 19" fill="none">
  <path
    d="M6 13.7834C7.54074 12.5538 8.7037 11.3722 9.48889 10.2385C10.2741 9.1055 10.6667 8.02047 10.6667 6.98343C10.6667 6.10936 10.5073 5.36476 10.1884 4.74965C9.87022 4.13513 9.47793 3.63884 9.01156 3.26076C8.54459 2.88328 8.03704 2.60921 7.48889 2.43854C6.94074 2.26847 6.44444 2.18343 6 2.18343C5.55556 2.18343 5.05926 2.26847 4.51111 2.43854C3.96296 2.60921 3.4557 2.88328 2.98933 3.26076C2.52237 3.63884 2.12948 4.13513 1.81067 4.74965C1.49244 5.36476 1.33333 6.10936 1.33333 6.98343C1.33333 8.02047 1.72593 9.1055 2.51111 10.2385C3.2963 11.3722 4.45926 12.5538 6 13.7834ZM6 15.1834C5.88148 15.1834 5.77037 15.1686 5.66667 15.139C5.56296 15.1094 5.46667 15.0575 5.37778 14.9834C3.57037 13.576 2.22222 12.2092 1.33333 10.883C0.444444 9.55736 0 8.2575 0 6.98343C0 5.97602 0.18163 5.09069 0.544889 4.32743C0.907555 3.56476 1.37422 2.92417 1.94489 2.40565C2.51496 1.88713 3.15941 1.49839 3.87822 1.23943C4.59644 0.979875 5.3037 0.850098 6 0.850098C6.6963 0.850098 7.40385 0.979875 8.12267 1.23943C8.84089 1.49839 9.48504 1.88713 10.0551 2.40565C10.6258 2.92417 11.0927 3.56476 11.456 4.32743C11.8187 5.09069 12 5.97602 12 6.98343C12 8.2575 11.5556 9.55736 10.6667 10.883C9.77778 12.2092 8.42963 13.576 6.62222 14.9834C6.54815 15.0575 6.4557 15.1094 6.34489 15.139C6.23348 15.1686 6.11852 15.1834 6 15.1834ZM6 8.40565C6.42963 8.40565 6.79644 8.25395 7.10044 7.95054C7.40385 7.64654 7.55556 7.27973 7.55556 6.8501C7.55556 6.42047 7.40385 6.05365 7.10044 5.74965C6.79644 5.44625 6.42963 5.29454 6 5.29454C5.57037 5.29454 5.20356 5.44625 4.89956 5.74965C4.59615 6.05365 4.44444 6.42047 4.44444 6.8501C4.44444 7.27973 4.59615 7.64654 4.89956 7.95054C5.20356 8.25395 5.57037 8.40565 6 8.40565ZM0.666667 18.1834C0.474074 18.1834 0.314963 18.1206 0.189333 17.995C0.0631109 17.8688 0 17.7094 0 17.5168C0 17.3242 0.0631109 17.1648 0.189333 17.0385C0.314963 16.9129 0.474074 16.8501 0.666667 16.8501H11.3333C11.5259 16.8501 11.6853 16.9129 11.8116 17.0385C11.9372 17.1648 12 17.3242 12 17.5168C12 17.7094 11.9372 17.8688 11.8116 17.995C11.6853 18.1206 11.5259 18.1834 11.3333 18.1834H0.666667Z"
    fill="#91BA4A" />
</svg>