<svg xmlns="http://www.w3.org/2000/svg" width="16" height="17" viewBox="0 0 16 17" fill="none">
  <path
    d="M8 16.5168C7.83006 16.5168 7.68967 16.4612 7.57882 16.3498C7.46745 16.2389 7.41176 16.0985 7.41176 15.9286V15.1639C5.77778 14.994 4.40183 14.35 3.28392 13.2321C2.16654 12.1148 1.52288 10.7391 1.35294 9.10508H0.588235C0.418301 9.10508 0.277909 9.04939 0.167059 8.93802C0.0556863 8.82717 0 8.68678 0 8.51685C0 8.34691 0.0556863 8.20626 0.167059 8.09488C0.277909 7.98403 0.418301 7.92861 0.588235 7.92861H1.35294C1.52288 6.29462 2.16654 4.91868 3.28392 3.80077C4.40183 2.68338 5.77778 2.03972 7.41176 1.86979V1.10508C7.41176 0.935146 7.46745 0.794493 7.57882 0.68312C7.68967 0.572271 7.83006 0.516846 8 0.516846C8.16993 0.516846 8.31059 0.572271 8.42196 0.68312C8.53281 0.794493 8.58823 0.935146 8.58823 1.10508V1.86979C10.2222 2.03972 11.5982 2.68338 12.7161 3.80077C13.8335 4.91868 14.4771 6.29462 14.6471 7.92861H15.4118C15.5817 7.92861 15.7224 7.98403 15.8337 8.09488C15.9446 8.20626 16 8.34691 16 8.51685C16 8.68678 15.9446 8.82717 15.8337 8.93802C15.7224 9.04939 15.5817 9.10508 15.4118 9.10508H14.6471C14.4771 10.7391 13.8335 12.1148 12.7161 13.2321C11.5982 14.35 10.2222 14.994 8.58823 15.1639V15.9286C8.58823 16.0985 8.53281 16.2389 8.42196 16.3498C8.31059 16.4612 8.16993 16.5168 8 16.5168ZM8 14.007C9.51634 14.007 10.8105 13.4711 11.8824 12.3992C12.9542 11.3273 13.4902 10.0332 13.4902 8.51685C13.4902 7.00051 12.9542 5.70639 11.8824 4.63449C10.8105 3.5626 9.51634 3.02665 8 3.02665C6.48366 3.02665 5.18954 3.5626 4.11765 4.63449C3.04575 5.70639 2.5098 7.00051 2.5098 8.51685C2.5098 10.0332 3.04575 11.3273 4.11765 12.3992C5.18954 13.4711 6.48366 14.007 8 14.007ZM8 11.2619C7.24183 11.2619 6.59477 10.994 6.05882 10.458C5.52287 9.92207 5.2549 9.27501 5.2549 8.51685C5.2549 7.75868 5.52287 7.11162 6.05882 6.57567C6.59477 6.03972 7.24183 5.77175 8 5.77175C8.75817 5.77175 9.40523 6.03972 9.94118 6.57567C10.4771 7.11162 10.7451 7.75868 10.7451 8.51685C10.7451 9.27501 10.4771 9.92207 9.94118 10.458C9.40523 10.994 8.75817 11.2619 8 11.2619ZM8 10.0855C8.43137 10.0855 8.80078 9.93175 9.10823 9.6243C9.41516 9.31737 9.56863 8.94822 9.56863 8.51685C9.56863 8.08547 9.41516 7.71606 9.10823 7.40861C8.80078 7.10168 8.43137 6.94822 8 6.94822C7.56863 6.94822 7.19948 7.10168 6.89255 7.40861C6.5851 7.71606 6.43137 8.08547 6.43137 8.51685C6.43137 8.94822 6.5851 9.31737 6.89255 9.6243C7.19948 9.93175 7.56863 10.0855 8 10.0855Z"
    fill="#485C3B" />
</svg>