<svg width="16" height="16" viewBox="0 0 16 16" fill="none" xmlns="http://www.w3.org/2000/svg">
<g id="Eixos e pesos">
<path id="Vector" d="M8 15C11.866 15 15 11.866 15 8C15 4.13401 11.866 1 8 1C4.13401 1 1 4.13401 1 8C1 11.866 4.13401 15 8 15Z" stroke="black" stroke-linecap="round" stroke-linejoin="round"/>
<path id="Vector_2" d="M7.99998 9.4001C8.77317 9.4001 9.39998 8.7733 9.39998 8.0001C9.39998 7.2269 8.77317 6.6001 7.99998 6.6001C7.22678 6.6001 6.59998 7.2269 6.59998 8.0001C6.59998 8.7733 7.22678 9.4001 7.99998 9.4001Z" stroke="black" stroke-linecap="round" stroke-linejoin="round"/>
<path id="Vector_3" d="M7.99999 12.1998C10.3196 12.1998 12.2 10.3194 12.2 7.9998C12.2 5.68021 10.3196 3.7998 7.99999 3.7998C5.68039 3.7998 3.79999 5.68021 3.79999 7.9998C3.79999 10.3194 5.68039 12.1998 7.99999 12.1998Z" stroke="black" stroke-linecap="round" stroke-linejoin="round"/>
<path id="Vector_4" d="M8.00001 9.39998V12.2M6.67001 8.43398L4.01001 9.29498M7.17401 6.86598L5.52901 4.60498M9.33001 8.43398L11.99 9.29498M8.82601 6.86598L10.471 4.60498" stroke="black" stroke-linecap="round" stroke-linejoin="round"/>
</g>
</svg>
